%
M48
M72
T01C0.0236
T02C0.0400
%
T01
X1201Y1201
X2201Y1201
X3201Y1201
X4201Y1201
X5201Y1201
X6201Y1201
X7201Y1201
X8201Y1201
X9201Y1201
X10201Y1201
X11201Y1201
X12201Y1201
X13201Y1201
X14201Y1201
X15201Y1201
X16201Y1201
X17201Y1201
X18201Y1201
X19201Y1201
X20201Y1201
X21201Y1201
X22201Y1201
X23201Y1201
X24201Y1201
X25201Y1201
X26201Y1201
X27201Y1201
X28201Y1201
X29201Y1201
X30201Y1201
X31201Y1201
X32201Y1201
X33201Y1201
X34201Y1201
X35201Y1201
X36201Y1201
X37201Y1201
X38201Y1201
X39201Y1201
X40201Y1201
X41201Y1201
X42201Y1201
X43201Y1201
X44201Y1201
X45201Y1201
X46201Y1201
X47201Y1201
X48201Y1201
X49201Y1201
X50201Y1201
X51201Y1201
X52201Y1201
X53201Y1201
X54201Y1201
X55201Y1201
X56201Y1201
X57201Y1201
X58201Y1201
X59201Y1201
X60201Y1201
X61201Y1201
X62201Y1201
X63201Y1201
X64201Y1201
X65201Y1201
X66201Y1201
X67201Y1201
X68201Y1201
X69201Y1201
X70201Y1201
X71201Y1201
X72201Y1201
X73201Y1201
X74201Y1201
X75201Y1201
X76201Y1201
X77201Y1201
X78201Y1201
X79201Y1201
X79201Y2201
X78201Y2201
X77201Y2201
X76201Y2201
X75201Y2201
X74201Y2201
X73201Y2201
X72201Y2201
X71201Y2201
X70201Y2201
X69201Y2201
X68201Y2201
X67201Y2201
X66201Y2201
X65201Y2201
X64201Y2201
X63201Y2201
X62201Y2201
X61201Y2201
X60201Y2201
X59201Y2201
X58201Y2201
X57201Y2201
X56201Y2201
X55201Y2201
X54201Y2201
X53201Y2201
X52201Y2201
X51201Y2201
X50201Y2201
X49201Y2201
X48201Y2201
X47201Y2201
X46201Y2201
X45201Y2201
X44201Y2201
X43201Y2201
X42201Y2201
X41201Y2201
X40201Y2201
X39201Y2201
X38201Y2201
X37201Y2201
X36201Y2201
X35201Y2201
X34201Y2201
X33201Y2201
X32201Y2201
X31201Y2201
X30201Y2201
X29201Y2201
X28201Y2201
X27201Y2201
X26201Y2201
X25201Y2201
X24201Y2201
X23201Y2201
X22201Y2201
X21201Y2201
X20201Y2201
X19201Y2201
X18201Y2201
X17201Y2201
X16201Y2201
X15201Y2201
X14201Y2201
X13201Y2201
X12201Y2201
X11201Y2201
X10201Y2201
X9201Y2201
X8201Y2201
X7201Y2201
X6201Y2201
X5201Y2201
X4201Y2201
X3201Y2201
X2201Y2201
X1201Y2201
T02
X1701Y651
X3701Y651
X4701Y751
X2701Y751
X701Y751
X5701Y651
X7701Y651
X8701Y751
X6701Y751
X9701Y651
X11701Y651
X12701Y751
X10701Y751
X13701Y651
X15701Y651
X16701Y751
X14701Y751
X17701Y651
X19701Y651
X21701Y651
X22701Y751
X24701Y751
X25701Y651
X23701Y651
X26701Y751
X28701Y751
X29701Y651
X27701Y651
X30701Y751
X32701Y751
X33701Y651
X31701Y651
X34701Y751
X36701Y751
X37701Y651
X35701Y651
X38701Y751
X40701Y751
X41701Y651
X39701Y651
X42701Y751
X44701Y751
X45701Y651
X43701Y651
X46701Y751
X48701Y751
X49701Y651
X47701Y651
X50701Y751
X52701Y751
X53701Y651
X51701Y651
X54701Y751
X56701Y751
X57701Y651
X55701Y651
X58701Y751
X60701Y751
X62701Y751
X63701Y651
X65701Y651
X66701Y751
X64701Y751
X67701Y651
X69701Y651
X70701Y751
X68701Y751
X71701Y651
X73701Y651
X74701Y751
X72701Y751
X75701Y651
X77701Y651
X78701Y751
X76701Y751
X79701Y651
X61701Y651
X59701Y651
X59701Y1651
X61701Y1651
X62701Y1751
X60701Y1751
X58701Y1751
X57701Y1651
X55701Y1651
X56701Y1751
X54701Y1751
X53701Y1651
X51701Y1651
X52701Y1751
X50701Y1751
X49701Y1651
X47701Y1651
X48701Y1751
X46701Y1751
X45701Y1651
X43701Y1651
X44701Y1751
X42701Y1751
X41701Y1651
X39701Y1651
X40701Y1751
X38701Y1751
X37701Y1651
X35701Y1651
X36701Y1751
X34701Y1751
X33701Y1651
X31701Y1651
X32701Y1751
X30701Y1751
X29701Y1651
X27701Y1651
X28701Y1751
X26701Y1751
X25701Y1651
X23701Y1651
X24701Y1751
X22701Y1751
X21701Y1651
X19701Y1651
X17701Y1651
X18701Y1751
X20701Y1751
X16701Y1751
X14701Y1751
X15701Y1651
X13701Y1651
X12701Y1751
X10701Y1751
X11701Y1651
X9701Y1651
X8701Y1751
X6701Y1751
X7701Y1651
X5701Y1651
X4701Y1751
X2701Y1751
X3701Y1651
X1701Y1651
X701Y1751
X1701Y2651
X3701Y2651
X4701Y2751
X2701Y2751
X701Y2751
X5701Y2651
X7701Y2651
X8701Y2751
X6701Y2751
X9701Y2651
X11701Y2651
X12701Y2751
X10701Y2751
X13701Y2651
X15701Y2651
X16701Y2751
X14701Y2751
X17701Y2651
X19701Y2651
X21701Y2651
X22701Y2751
X24701Y2751
X25701Y2651
X23701Y2651
X26701Y2751
X28701Y2751
X29701Y2651
X27701Y2651
X30701Y2751
X32701Y2751
X33701Y2651
X31701Y2651
X34701Y2751
X36701Y2751
X37701Y2651
X35701Y2651
X38701Y2751
X40701Y2751
X41701Y2651
X39701Y2651
X42701Y2751
X44701Y2751
X45701Y2651
X43701Y2651
X46701Y2751
X48701Y2751
X49701Y2651
X47701Y2651
X50701Y2751
X52701Y2751
X53701Y2651
X51701Y2651
X54701Y2751
X56701Y2751
X57701Y2651
X55701Y2651
X58701Y2751
X60701Y2751
X62701Y2751
X63701Y2651
X65701Y2651
X66701Y2751
X64701Y2751
X67701Y2651
X69701Y2651
X70701Y2751
X68701Y2751
X71701Y2651
X73701Y2651
X74701Y2751
X72701Y2751
X75701Y2651
X77701Y2651
X78701Y2751
X76701Y2751
X79701Y2651
X61701Y2651
X59701Y2651
X64701Y1751
X66701Y1751
X67701Y1651
X69701Y1651
X70701Y1751
X68701Y1751
X71701Y1651
X73701Y1651
X74701Y1751
X72701Y1751
X75701Y1651
X77701Y1651
X78701Y1751
X76701Y1751
X79701Y1651
X65701Y1651
X63701Y1651
X20701Y751
X18701Y751
X18701Y2751
X20701Y2751
M30
