G75*
G70*
%OFA0B0*%
%FSLAX24Y24*%
%IPPOS*%
%LPD*%
%AMOC8*
5,1,8,0,0,1.08239X$1,22.5*
%
%ADD10C,0.0316*%
%ADD11C,0.0820*%
D10*
X001201Y001201D03*
X002201Y001201D03*
X003201Y001201D03*
X004201Y001201D03*
X005201Y001201D03*
X006201Y001201D03*
X007201Y001201D03*
X008201Y001201D03*
X009201Y001201D03*
X010201Y001201D03*
X011201Y001201D03*
X012201Y001201D03*
X013201Y001201D03*
X014201Y001201D03*
X015201Y001201D03*
X016201Y001201D03*
X017201Y001201D03*
X018201Y001201D03*
X019201Y001201D03*
X020201Y001201D03*
X021201Y001201D03*
X022201Y001201D03*
X023201Y001201D03*
X024201Y001201D03*
X025201Y001201D03*
X026201Y001201D03*
X027201Y001201D03*
X028201Y001201D03*
X029201Y001201D03*
X030201Y001201D03*
X031201Y001201D03*
X032201Y001201D03*
X033201Y001201D03*
X034201Y001201D03*
X035201Y001201D03*
X036201Y001201D03*
X037201Y001201D03*
X038201Y001201D03*
X039201Y001201D03*
X040201Y001201D03*
X041201Y001201D03*
X042201Y001201D03*
X043201Y001201D03*
X044201Y001201D03*
X045201Y001201D03*
X046201Y001201D03*
X047201Y001201D03*
X048201Y001201D03*
X049201Y001201D03*
X050201Y001201D03*
X051201Y001201D03*
X052201Y001201D03*
X053201Y001201D03*
X054201Y001201D03*
X055201Y001201D03*
X056201Y001201D03*
X057201Y001201D03*
X058201Y001201D03*
X059201Y001201D03*
X060201Y001201D03*
X061201Y001201D03*
X062201Y001201D03*
X063201Y001201D03*
X064201Y001201D03*
X065201Y001201D03*
X066201Y001201D03*
X067201Y001201D03*
X068201Y001201D03*
X069201Y001201D03*
X070201Y001201D03*
X071201Y001201D03*
X072201Y001201D03*
X073201Y001201D03*
X074201Y001201D03*
X075201Y001201D03*
X076201Y001201D03*
X077201Y001201D03*
X078201Y001201D03*
X079201Y001201D03*
X079201Y002201D03*
X078201Y002201D03*
X077201Y002201D03*
X076201Y002201D03*
X075201Y002201D03*
X074201Y002201D03*
X073201Y002201D03*
X072201Y002201D03*
X071201Y002201D03*
X070201Y002201D03*
X069201Y002201D03*
X068201Y002201D03*
X067201Y002201D03*
X066201Y002201D03*
X065201Y002201D03*
X064201Y002201D03*
X063201Y002201D03*
X062201Y002201D03*
X061201Y002201D03*
X060201Y002201D03*
X059201Y002201D03*
X058201Y002201D03*
X057201Y002201D03*
X056201Y002201D03*
X055201Y002201D03*
X054201Y002201D03*
X053201Y002201D03*
X052201Y002201D03*
X051201Y002201D03*
X050201Y002201D03*
X049201Y002201D03*
X048201Y002201D03*
X047201Y002201D03*
X046201Y002201D03*
X045201Y002201D03*
X044201Y002201D03*
X043201Y002201D03*
X042201Y002201D03*
X041201Y002201D03*
X040201Y002201D03*
X039201Y002201D03*
X038201Y002201D03*
X037201Y002201D03*
X036201Y002201D03*
X035201Y002201D03*
X034201Y002201D03*
X033201Y002201D03*
X032201Y002201D03*
X031201Y002201D03*
X030201Y002201D03*
X029201Y002201D03*
X028201Y002201D03*
X027201Y002201D03*
X026201Y002201D03*
X025201Y002201D03*
X024201Y002201D03*
X023201Y002201D03*
X022201Y002201D03*
X021201Y002201D03*
X020201Y002201D03*
X019201Y002201D03*
X018201Y002201D03*
X017201Y002201D03*
X016201Y002201D03*
X015201Y002201D03*
X014201Y002201D03*
X013201Y002201D03*
X012201Y002201D03*
X011201Y002201D03*
X010201Y002201D03*
X009201Y002201D03*
X008201Y002201D03*
X007201Y002201D03*
X006201Y002201D03*
X005201Y002201D03*
X004201Y002201D03*
X003201Y002201D03*
X002201Y002201D03*
X001201Y002201D03*
D11*
X001701Y000651D03*
X003701Y000651D03*
X004701Y000751D03*
X002701Y000751D03*
X000701Y000751D03*
X005701Y000651D03*
X007701Y000651D03*
X008701Y000751D03*
X006701Y000751D03*
X009701Y000651D03*
X011701Y000651D03*
X012701Y000751D03*
X010701Y000751D03*
X013701Y000651D03*
X015701Y000651D03*
X016701Y000751D03*
X014701Y000751D03*
X017701Y000651D03*
X019701Y000651D03*
X021701Y000651D03*
X022701Y000751D03*
X024701Y000751D03*
X025701Y000651D03*
X023701Y000651D03*
X026701Y000751D03*
X028701Y000751D03*
X029701Y000651D03*
X027701Y000651D03*
X030701Y000751D03*
X032701Y000751D03*
X033701Y000651D03*
X031701Y000651D03*
X034701Y000751D03*
X036701Y000751D03*
X037701Y000651D03*
X035701Y000651D03*
X038701Y000751D03*
X040701Y000751D03*
X041701Y000651D03*
X039701Y000651D03*
X042701Y000751D03*
X044701Y000751D03*
X045701Y000651D03*
X043701Y000651D03*
X046701Y000751D03*
X048701Y000751D03*
X049701Y000651D03*
X047701Y000651D03*
X050701Y000751D03*
X052701Y000751D03*
X053701Y000651D03*
X051701Y000651D03*
X054701Y000751D03*
X056701Y000751D03*
X057701Y000651D03*
X055701Y000651D03*
X058701Y000751D03*
X060701Y000751D03*
X062701Y000751D03*
X063701Y000651D03*
X065701Y000651D03*
X066701Y000751D03*
X064701Y000751D03*
X067701Y000651D03*
X069701Y000651D03*
X070701Y000751D03*
X068701Y000751D03*
X071701Y000651D03*
X073701Y000651D03*
X074701Y000751D03*
X072701Y000751D03*
X075701Y000651D03*
X077701Y000651D03*
X078701Y000751D03*
X076701Y000751D03*
X079701Y000651D03*
X061701Y000651D03*
X059701Y000651D03*
X059701Y001651D03*
X061701Y001651D03*
X062701Y001751D03*
X060701Y001751D03*
X058701Y001751D03*
X057701Y001651D03*
X055701Y001651D03*
X056701Y001751D03*
X054701Y001751D03*
X053701Y001651D03*
X051701Y001651D03*
X052701Y001751D03*
X050701Y001751D03*
X049701Y001651D03*
X047701Y001651D03*
X048701Y001751D03*
X046701Y001751D03*
X045701Y001651D03*
X043701Y001651D03*
X044701Y001751D03*
X042701Y001751D03*
X041701Y001651D03*
X039701Y001651D03*
X040701Y001751D03*
X038701Y001751D03*
X037701Y001651D03*
X035701Y001651D03*
X036701Y001751D03*
X034701Y001751D03*
X033701Y001651D03*
X031701Y001651D03*
X032701Y001751D03*
X030701Y001751D03*
X029701Y001651D03*
X027701Y001651D03*
X028701Y001751D03*
X026701Y001751D03*
X025701Y001651D03*
X023701Y001651D03*
X024701Y001751D03*
X022701Y001751D03*
X021701Y001651D03*
X019701Y001651D03*
X017701Y001651D03*
X018701Y001751D03*
X020701Y001751D03*
X016701Y001751D03*
X014701Y001751D03*
X015701Y001651D03*
X013701Y001651D03*
X012701Y001751D03*
X010701Y001751D03*
X011701Y001651D03*
X009701Y001651D03*
X008701Y001751D03*
X006701Y001751D03*
X007701Y001651D03*
X005701Y001651D03*
X004701Y001751D03*
X002701Y001751D03*
X003701Y001651D03*
X001701Y001651D03*
X000701Y001751D03*
X001701Y002651D03*
X003701Y002651D03*
X004701Y002751D03*
X002701Y002751D03*
X000701Y002751D03*
X005701Y002651D03*
X007701Y002651D03*
X008701Y002751D03*
X006701Y002751D03*
X009701Y002651D03*
X011701Y002651D03*
X012701Y002751D03*
X010701Y002751D03*
X013701Y002651D03*
X015701Y002651D03*
X016701Y002751D03*
X014701Y002751D03*
X017701Y002651D03*
X019701Y002651D03*
X021701Y002651D03*
X022701Y002751D03*
X024701Y002751D03*
X025701Y002651D03*
X023701Y002651D03*
X026701Y002751D03*
X028701Y002751D03*
X029701Y002651D03*
X027701Y002651D03*
X030701Y002751D03*
X032701Y002751D03*
X033701Y002651D03*
X031701Y002651D03*
X034701Y002751D03*
X036701Y002751D03*
X037701Y002651D03*
X035701Y002651D03*
X038701Y002751D03*
X040701Y002751D03*
X041701Y002651D03*
X039701Y002651D03*
X042701Y002751D03*
X044701Y002751D03*
X045701Y002651D03*
X043701Y002651D03*
X046701Y002751D03*
X048701Y002751D03*
X049701Y002651D03*
X047701Y002651D03*
X050701Y002751D03*
X052701Y002751D03*
X053701Y002651D03*
X051701Y002651D03*
X054701Y002751D03*
X056701Y002751D03*
X057701Y002651D03*
X055701Y002651D03*
X058701Y002751D03*
X060701Y002751D03*
X062701Y002751D03*
X063701Y002651D03*
X065701Y002651D03*
X066701Y002751D03*
X064701Y002751D03*
X067701Y002651D03*
X069701Y002651D03*
X070701Y002751D03*
X068701Y002751D03*
X071701Y002651D03*
X073701Y002651D03*
X074701Y002751D03*
X072701Y002751D03*
X075701Y002651D03*
X077701Y002651D03*
X078701Y002751D03*
X076701Y002751D03*
X079701Y002651D03*
X061701Y002651D03*
X059701Y002651D03*
X064701Y001751D03*
X066701Y001751D03*
X067701Y001651D03*
X069701Y001651D03*
X070701Y001751D03*
X068701Y001751D03*
X071701Y001651D03*
X073701Y001651D03*
X074701Y001751D03*
X072701Y001751D03*
X075701Y001651D03*
X077701Y001651D03*
X078701Y001751D03*
X076701Y001751D03*
X079701Y001651D03*
X065701Y001651D03*
X063701Y001651D03*
X020701Y000751D03*
X018701Y000751D03*
X018701Y002751D03*
X020701Y002751D03*
M02*
